<svg width="32" height="32" viewBox="0 0 32 32" fill="none" xmlns="http://www.w3.org/2000/svg">
<path d="M16.706 27.2268H8.27935C4.06602 27.2268 2.66602 24.4268 2.66602 21.6134V10.3868C2.66602 6.17344 4.06602 4.77344 8.27935 4.77344H16.706C20.9193 4.77344 22.3193 6.17344 22.3193 10.3868V21.6134C22.3193 25.8268 20.906 27.2268 16.706 27.2268Z" stroke="white" stroke-width="1.5" stroke-linecap="round" stroke-linejoin="round"/>
<path d="M26.027 22.7999L22.3203 20.1999V11.7866L26.027 9.1866C27.8403 7.91993 29.3336 8.69326 29.3336 10.9199V21.0799C29.3336 23.3066 27.8403 24.0799 26.027 22.7999Z" stroke="white" stroke-width="1.5" stroke-linecap="round" stroke-linejoin="round"/>
<path d="M15.334 14.6667C16.4386 14.6667 17.334 13.7713 17.334 12.6667C17.334 11.5622 16.4386 10.6667 15.334 10.6667C14.2294 10.6667 13.334 11.5622 13.334 12.6667C13.334 13.7713 14.2294 14.6667 15.334 14.6667Z" stroke="white" stroke-width="1.5" stroke-linecap="round" stroke-linejoin="round"/>
</svg>
